<mxfile host="app.diagrams.net" modified="2020-10-20T09:57:08.107Z" agent="5.0 (Windows NT 10.0; Win64; x64) AppleWebKit/537.36 (KHTML, like Gecko) Chrome/86.0.4240.80 Safari/537.36 Edg/86.0.622.43" etag="7F_zorKBe_8YkbLUsexm" version="13.8.0" type="github">
  <diagram id="TmbDD1WKRl66DxUwx3uT" name="Page-1">
    <mxGraphModel dx="1038" dy="579" grid="1" gridSize="10" guides="1" tooltips="1" connect="1" arrows="1" fold="1" page="1" pageScale="1" pageWidth="827" pageHeight="1169" math="0" shadow="0">
      <root>
        <mxCell id="0" />
        <mxCell id="1" parent="0" />
        <mxCell id="IBnQpZH9h4TDyPZ-jyaV-32" value="" style="rounded=0;whiteSpace=wrap;html=1;dashed=1;" vertex="1" parent="1">
          <mxGeometry x="20" y="184" width="780" height="426" as="geometry" />
        </mxCell>
        <mxCell id="IBnQpZH9h4TDyPZ-jyaV-2" value="" style="rounded=0;whiteSpace=wrap;html=1;dashed=1;dashPattern=1 2;" vertex="1" parent="1">
          <mxGeometry x="50" y="300" width="710" height="300" as="geometry" />
        </mxCell>
        <mxCell id="IBnQpZH9h4TDyPZ-jyaV-18" value="" style="rounded=0;whiteSpace=wrap;html=1;dashed=1;fillColor=#f5f5f5;strokeColor=#666666;fontColor=#333333;" vertex="1" parent="1">
          <mxGeometry x="340" y="310" width="380" height="130" as="geometry" />
        </mxCell>
        <mxCell id="IBnQpZH9h4TDyPZ-jyaV-1" value="&lt;font color=&quot;#ffffff&quot;&gt;ToDo App&lt;br&gt;[Container: Python Flask]&lt;br&gt;&lt;br&gt;Provides all of the todo functionality via their web browser&lt;/font&gt;" style="whiteSpace=wrap;html=1;aspect=fixed;fillColor=#007FFF;" vertex="1" parent="1">
          <mxGeometry x="320" y="20" width="140" height="140" as="geometry" />
        </mxCell>
        <mxCell id="IBnQpZH9h4TDyPZ-jyaV-3" value="import libraries" style="rounded=0;whiteSpace=wrap;html=1;fillColor=#dae8fc;strokeColor=#6c8ebf;" vertex="1" parent="1">
          <mxGeometry x="80" y="340" width="120" height="50" as="geometry" />
        </mxCell>
        <mxCell id="IBnQpZH9h4TDyPZ-jyaV-4" value="Flask App Route" style="rounded=0;whiteSpace=wrap;html=1;fillColor=#dae8fc;strokeColor=#6c8ebf;" vertex="1" parent="1">
          <mxGeometry x="80" y="415" width="120" height="60" as="geometry" />
        </mxCell>
        <mxCell id="IBnQpZH9h4TDyPZ-jyaV-13" style="edgeStyle=orthogonalEdgeStyle;rounded=0;orthogonalLoop=1;jettySize=auto;html=1;exitX=0.5;exitY=0;exitDx=0;exitDy=0;entryX=0;entryY=0.5;entryDx=0;entryDy=0;" edge="1" parent="1" source="IBnQpZH9h4TDyPZ-jyaV-5" target="IBnQpZH9h4TDyPZ-jyaV-6">
          <mxGeometry relative="1" as="geometry" />
        </mxCell>
        <mxCell id="IBnQpZH9h4TDyPZ-jyaV-15" value="POST" style="edgeLabel;html=1;align=center;verticalAlign=middle;resizable=0;points=[];" vertex="1" connectable="0" parent="IBnQpZH9h4TDyPZ-jyaV-13">
          <mxGeometry x="-0.4454" y="-1" relative="1" as="geometry">
            <mxPoint as="offset" />
          </mxGeometry>
        </mxCell>
        <mxCell id="IBnQpZH9h4TDyPZ-jyaV-5" value="" style="rhombus;whiteSpace=wrap;html=1;fillColor=#d5e8d4;strokeColor=#82b366;" vertex="1" parent="1">
          <mxGeometry x="240" y="420" width="80" height="50" as="geometry" />
        </mxCell>
        <mxCell id="IBnQpZH9h4TDyPZ-jyaV-6" value="Server side form validation" style="whiteSpace=wrap;html=1;aspect=fixed;" vertex="1" parent="1">
          <mxGeometry x="354" y="340" width="70" height="70" as="geometry" />
        </mxCell>
        <mxCell id="IBnQpZH9h4TDyPZ-jyaV-7" value="Form Object" style="whiteSpace=wrap;html=1;aspect=fixed;fillColor=#dae8fc;strokeColor=#6c8ebf;" vertex="1" parent="1">
          <mxGeometry x="450" y="340" width="70" height="70" as="geometry" />
        </mxCell>
        <mxCell id="IBnQpZH9h4TDyPZ-jyaV-8" value="TrelloClient" style="whiteSpace=wrap;html=1;aspect=fixed;fillColor=#dae8fc;strokeColor=#6c8ebf;" vertex="1" parent="1">
          <mxGeometry x="540" y="340" width="70" height="70" as="geometry" />
        </mxCell>
        <mxCell id="IBnQpZH9h4TDyPZ-jyaV-9" value="Submit to Trello" style="whiteSpace=wrap;html=1;aspect=fixed;fillColor=#dae8fc;strokeColor=#6c8ebf;" vertex="1" parent="1">
          <mxGeometry x="630" y="340" width="70" height="70" as="geometry" />
        </mxCell>
        <mxCell id="IBnQpZH9h4TDyPZ-jyaV-10" value="Render web page&lt;br&gt;[Template]" style="whiteSpace=wrap;html=1;aspect=fixed;" vertex="1" parent="1">
          <mxGeometry x="355" y="475" width="70" height="70" as="geometry" />
        </mxCell>
        <mxCell id="IBnQpZH9h4TDyPZ-jyaV-11" value="Dispaly form&amp;nbsp;" style="whiteSpace=wrap;html=1;aspect=fixed;" vertex="1" parent="1">
          <mxGeometry x="450" y="475" width="70" height="70" as="geometry" />
        </mxCell>
        <mxCell id="IBnQpZH9h4TDyPZ-jyaV-14" value="" style="endArrow=none;html=1;entryX=0.5;entryY=1;entryDx=0;entryDy=0;exitX=0;exitY=0.5;exitDx=0;exitDy=0;edgeStyle=orthogonalEdgeStyle;startArrow=classic;startFill=1;" edge="1" parent="1" source="IBnQpZH9h4TDyPZ-jyaV-10" target="IBnQpZH9h4TDyPZ-jyaV-5">
          <mxGeometry width="50" height="50" relative="1" as="geometry">
            <mxPoint x="230" y="545" as="sourcePoint" />
            <mxPoint x="280" y="495" as="targetPoint" />
          </mxGeometry>
        </mxCell>
        <mxCell id="IBnQpZH9h4TDyPZ-jyaV-16" value="GET" style="edgeLabel;html=1;align=center;verticalAlign=middle;resizable=0;points=[];" vertex="1" connectable="0" parent="IBnQpZH9h4TDyPZ-jyaV-14">
          <mxGeometry x="0.3043" y="-9" relative="1" as="geometry">
            <mxPoint x="-12" y="-8" as="offset" />
          </mxGeometry>
        </mxCell>
        <mxCell id="IBnQpZH9h4TDyPZ-jyaV-19" value="@app_route/" style="text;html=1;resizable=0;autosize=1;align=center;verticalAlign=middle;points=[];fillColor=none;strokeColor=none;rounded=0;dashed=1;" vertex="1" parent="1">
          <mxGeometry x="344" y="312" width="90" height="20" as="geometry" />
        </mxCell>
        <mxCell id="IBnQpZH9h4TDyPZ-jyaV-20" value="" style="endArrow=none;html=1;exitX=1;exitY=0.5;exitDx=0;exitDy=0;entryX=0;entryY=0.5;entryDx=0;entryDy=0;" edge="1" parent="1" source="IBnQpZH9h4TDyPZ-jyaV-4" target="IBnQpZH9h4TDyPZ-jyaV-5">
          <mxGeometry width="50" height="50" relative="1" as="geometry">
            <mxPoint x="390" y="370" as="sourcePoint" />
            <mxPoint x="440" y="320" as="targetPoint" />
          </mxGeometry>
        </mxCell>
        <mxCell id="IBnQpZH9h4TDyPZ-jyaV-21" value="app.py" style="text;html=1;resizable=0;autosize=1;align=center;verticalAlign=middle;points=[];fillColor=none;strokeColor=none;rounded=0;dashed=1;" vertex="1" parent="1">
          <mxGeometry x="74" y="310" width="50" height="20" as="geometry" />
        </mxCell>
        <mxCell id="IBnQpZH9h4TDyPZ-jyaV-22" value="Render web page&lt;br&gt;[Template]" style="whiteSpace=wrap;html=1;aspect=fixed;fillColor=#dae8fc;strokeColor=#6c8ebf;" vertex="1" parent="1">
          <mxGeometry x="355" y="475" width="70" height="70" as="geometry" />
        </mxCell>
        <mxCell id="IBnQpZH9h4TDyPZ-jyaV-23" value="Load from Trello" style="whiteSpace=wrap;html=1;aspect=fixed;fillColor=#dae8fc;strokeColor=#6c8ebf;" vertex="1" parent="1">
          <mxGeometry x="450" y="475" width="70" height="70" as="geometry" />
        </mxCell>
        <mxCell id="IBnQpZH9h4TDyPZ-jyaV-24" value="Server side form validation" style="whiteSpace=wrap;html=1;aspect=fixed;fillColor=#dae8fc;strokeColor=#6c8ebf;" vertex="1" parent="1">
          <mxGeometry x="354" y="340" width="70" height="70" as="geometry" />
        </mxCell>
        <mxCell id="IBnQpZH9h4TDyPZ-jyaV-25" value="Trello System&lt;br&gt;[Sofware System]&lt;br&gt;&lt;br&gt;The 3rd party system to create store ToDo cards" style="whiteSpace=wrap;html=1;aspect=fixed;fillColor=#E6E6E6;" vertex="1" parent="1">
          <mxGeometry x="344" y="660" width="130" height="130" as="geometry" />
        </mxCell>
        <mxCell id="IBnQpZH9h4TDyPZ-jyaV-26" value="" style="endArrow=none;dashed=1;html=1;dashPattern=1 3;strokeWidth=2;exitX=0.5;exitY=0;exitDx=0;exitDy=0;" edge="1" parent="1" source="IBnQpZH9h4TDyPZ-jyaV-25">
          <mxGeometry width="50" height="50" relative="1" as="geometry">
            <mxPoint x="390" y="500" as="sourcePoint" />
            <mxPoint x="409" y="600" as="targetPoint" />
          </mxGeometry>
        </mxCell>
        <mxCell id="IBnQpZH9h4TDyPZ-jyaV-27" value="" style="rounded=0;whiteSpace=wrap;html=1;dashed=1;dashPattern=1 2;" vertex="1" parent="1">
          <mxGeometry x="380" y="199" width="340" height="90" as="geometry" />
        </mxCell>
        <mxCell id="IBnQpZH9h4TDyPZ-jyaV-28" value="TrelloCard" style="whiteSpace=wrap;html=1;aspect=fixed;" vertex="1" parent="1">
          <mxGeometry x="451" y="209.5" width="60.5" height="60.5" as="geometry" />
        </mxCell>
        <mxCell id="IBnQpZH9h4TDyPZ-jyaV-29" value="TrelloList" style="whiteSpace=wrap;html=1;aspect=fixed;" vertex="1" parent="1">
          <mxGeometry x="542" y="209.5" width="60.5" height="60.5" as="geometry" />
        </mxCell>
        <mxCell id="IBnQpZH9h4TDyPZ-jyaV-30" value="Item" style="whiteSpace=wrap;html=1;aspect=fixed;" vertex="1" parent="1">
          <mxGeometry x="630" y="209.5" width="60.5" height="60.5" as="geometry" />
        </mxCell>
        <mxCell id="IBnQpZH9h4TDyPZ-jyaV-31" value="entities" style="text;html=1;resizable=0;autosize=1;align=center;verticalAlign=middle;points=[];fillColor=none;strokeColor=none;rounded=0;dashed=1;" vertex="1" parent="1">
          <mxGeometry x="384" y="204" width="50" height="20" as="geometry" />
        </mxCell>
        <mxCell id="IBnQpZH9h4TDyPZ-jyaV-33" value="Flask Web Server" style="text;html=1;resizable=0;autosize=1;align=center;verticalAlign=middle;points=[];fillColor=none;strokeColor=none;rounded=0;dashed=1;" vertex="1" parent="1">
          <mxGeometry x="60" y="209.5" width="110" height="20" as="geometry" />
        </mxCell>
        <mxCell id="IBnQpZH9h4TDyPZ-jyaV-34" value="" style="endArrow=none;html=1;exitX=0;exitY=0.5;exitDx=0;exitDy=0;edgeStyle=orthogonalEdgeStyle;endFill=0;startArrow=block;startFill=1;" edge="1" parent="1" source="IBnQpZH9h4TDyPZ-jyaV-4" target="IBnQpZH9h4TDyPZ-jyaV-1">
          <mxGeometry width="50" height="50" relative="1" as="geometry">
            <mxPoint x="390" y="200" as="sourcePoint" />
            <mxPoint x="440" y="150" as="targetPoint" />
            <Array as="points">
              <mxPoint x="40" y="445" />
              <mxPoint x="40" y="90" />
            </Array>
          </mxGeometry>
        </mxCell>
        <mxCell id="IBnQpZH9h4TDyPZ-jyaV-35" value="Dispaly Form &amp;amp; Table&amp;nbsp;" style="whiteSpace=wrap;html=1;aspect=fixed;fillColor=#dae8fc;strokeColor=#6c8ebf;" vertex="1" parent="1">
          <mxGeometry x="542" y="475" width="70" height="70" as="geometry" />
        </mxCell>
        <mxCell id="IBnQpZH9h4TDyPZ-jyaV-36" value="" style="endArrow=block;html=1;exitX=1;exitY=0.5;exitDx=0;exitDy=0;entryX=1;entryY=0.5;entryDx=0;entryDy=0;edgeStyle=orthogonalEdgeStyle;endFill=1;" edge="1" parent="1" source="IBnQpZH9h4TDyPZ-jyaV-35" target="IBnQpZH9h4TDyPZ-jyaV-1">
          <mxGeometry width="50" height="50" relative="1" as="geometry">
            <mxPoint x="390" y="480" as="sourcePoint" />
            <mxPoint x="440" y="430" as="targetPoint" />
            <Array as="points">
              <mxPoint x="780" y="510" />
              <mxPoint x="780" y="90" />
            </Array>
          </mxGeometry>
        </mxCell>
      </root>
    </mxGraphModel>
  </diagram>
</mxfile>
